<?xml version="1.0" standalone="no"?>
<svg
  xmlns:xlink="http://www.w3.org/1999/xlink"
  id="wave"
  style="transform:rotate(0deg); transition: 0.3s"
  viewBox="0 0 1440 310"
  version="1.1"
  xmlns="http://www.w3.org/2000/svg"
>
  <defs>
    <linearGradient id="sw-gradient-0" x1="0" x2="0" y1="1" y2="0">
      <stop stop-color="rgba(236, 72, 153, 1)" offset="0%"/>
      <stop stop-color="rgba(251, 207, 232, 1)" offset="100%"/>
    </linearGradient>
  </defs>
  <path
    style="transform:translate(0, 0px); opacity:1"
    fill="url(#sw-gradient-0)"
    d="M0,186L48,165.3C96,145,192,103,288,93C384,83,480,103,576,129.2C672,155,
    768,186,864,196.3C960,207,1056,196,1152,170.5C1248,145,1344,103,1440,
    108.5C1536,114,1632,165,1728,165.3C1824,165,1920,114,2016,98.2C2112,83,2208,
    103,2304,113.7C2400,124,2496,124,2592,134.3C2688,145,2784,165,2880,
    144.7C2976,124,3072,62,3168,51.7C3264,41,3360,83,3456,82.7C3552,83,3648,41,
    3744,67.2C3840,93,3936,186,4032,191.2C4128,196,4224,114,4320,93C4416,72,
    4512,114,4608,118.8C4704,124,4800,93,4896,113.7C4992,134,5088,207,5184,
    222.2C5280,238,5376,196,5472,165.3C5568,134,5664,114,5760,103.3C5856,93,
    5952,93,6048,77.5C6144,62,6240,31,6336,15.5C6432,0,6528,0,6624,25.8C6720,52,
    6816,103,6864,129.2L6912,155L6912,310L6864,310C6816,310,6720,310,6624,
    310C6528,310,6432,310,6336,310C6240,310,6144,310,6048,310C5952,310,5856,310,
    5760,310C5664,310,5568,310,5472,310C5376,310,5280,310,5184,310C5088,310,
    4992,310,4896,310C4800,310,4704,310,4608,310C4512,310,4416,310,4320,
    310C4224,310,4128,310,4032,310C3936,310,3840,310,3744,310C3648,310,3552,310,
    3456,310C3360,310,3264,310,3168,310C3072,310,2976,310,2880,310C2784,310,
    2688,310,2592,310C2496,310,2400,310,2304,310C2208,310,2112,310,2016,
    310C1920,310,1824,310,1728,310C1632,310,1536,310,1440,310C1344,310,1248,
    310,1152,310C1056,310,960,310,864,310C768,310,672,310,576,310C480,310,384,
    310,288,310C192,310,96,310,48,310L0,310Z"
  />
  <defs>
    <linearGradient id="sw-gradient-1" x1="0" x2="0" y1="1" y2="0">
      <stop stop-color="rgba(29, 78, 216, 1)" offset="0%"/>
      <stop stop-color="rgba(96, 165, 250, 1)" offset="100%"/>
    </linearGradient>
  </defs>
  <path
    style="transform:translate(0, 50px); opacity:0.9"
    fill="url(#sw-gradient-1)"
    d="M0,279L48,279C96,279,192,279,288,273.8C384,269,480,258,576,237.7C672,217,
    768,186,864,149.8C960,114,1056,72,1152,46.5C1248,21,1344,10,1440,46.5C1536,
    83,1632,165,1728,180.8C1824,196,1920,145,2016,134.3C2112,124,2208,155,2304,
    170.5C2400,186,2496,186,2592,201.5C2688,217,2784,248,2880,258.3C2976,269,
    3072,258,3168,248C3264,238,3360,227,3456,232.5C3552,238,3648,258,3744,
    263.5C3840,269,3936,258,4032,227.3C4128,196,4224,145,4320,149.8C4416,155,
    4512,217,4608,237.7C4704,258,4800,238,4896,237.7C4992,238,5088,258,5184,
    227.3C5280,196,5376,114,5472,72.3C5568,31,5664,31,5760,51.7C5856,72,5952,
    114,6048,149.8C6144,186,6240,217,6336,237.7C6432,258,6528,269,6624,
    227.3C6720,186,6816,93,6864,46.5L6912,0L6912,310L6864,310C6816,310,6720,
    310,6624,310C6528,310,6432,310,6336,310C6240,310,6144,310,6048,310C5952,310,
    5856,310,5760,310C5664,310,5568,310,5472,310C5376,310,5280,310,5184,
    310C5088,310,4992,310,4896,310C4800,310,4704,310,4608,310C4512,310,4416,310,
    4320,310C4224,310,4128,310,4032,310C3936,310,3840,310,3744,310C3648,310,
    3552,310,3456,310C3360,310,3264,310,3168,310C3072,310,2976,310,2880,
    310C2784,310,2688,310,2592,310C2496,310,2400,310,2304,310C2208,310,2112,310,
    2016,310C1920,310,1824,310,1728,310C1632,310,1536,310,1440,310C1344,310,
    1248,310,1152,310C1056,310,960,310,864,310C768,310,672,310,576,310C480,310,
    384,310,288,310C192,310,96,310,48,310L0,310Z"
  />
</svg>